<svg xmlns="http://www.w3.org/2000/svg" viewBox="0 0 7.56 5.67"><defs><style>.cls-1{fill:#8bc53f;fill-rule:evenodd;}</style></defs><g id="Layer_2" data-name="Layer 2"><g id="Isolation_Mode" data-name="Isolation Mode"><polygon class="cls-1" points="7.55 1.03 7.54 0.96 7.51 0.9 7.47 0.84 7.43 0.78 6.76 0.13 6.7 0.09 6.64 0.05 6.58 0.02 6.5 0.01 6.43 0 6.35 0.01 6.28 0.02 6.22 0.05 6.16 0.09 6.1 0.13 2.9 3.27 1.47 1.86 1.41 1.81 1.34 1.78 1.28 1.75 1.21 1.73 1.13 1.73 1.05 1.73 0.99 1.75 0.92 1.78 0.85 1.81 0.8 1.86 0.14 2.51 0.09 2.57 0.05 2.63 0.02 2.69 0 2.76 0 2.84 0 2.91 0.02 2.98 0.05 3.04 0.09 3.1 0.14 3.16 1.9 4.89 2.56 5.54 2.62 5.58 2.68 5.62 2.75 5.65 2.82 5.66 2.9 5.67 2.97 5.66 3.04 5.65 3.11 5.62 3.17 5.58 3.23 5.54 3.89 4.89 7.43 1.43 7.47 1.38 7.51 1.32 7.54 1.25 7.55 1.18 7.56 1.11 7.55 1.03"/></g></g></svg>