<svg xmlns="http://www.w3.org/2000/svg" viewBox="0 0 966.13 843.29"><defs><style>.cls-1,.cls-4{font-size:169.06px;stroke-miterlimit:10;stroke-width:8.56px;font-family:PoiretOne-Regular, Poiret One;}.cls-1,.cls-6{fill:#183e34;}.cls-1{stroke:#183e34;letter-spacing:-0.01em;}.cls-2{letter-spacing:-0.1em;}.cls-3{letter-spacing:-0.01em;}.cls-4,.cls-7{fill:#5cbd9b;}.cls-4{stroke:#5cbd9b;letter-spacing:0.05em;}.cls-5{letter-spacing:-0.1em;}</style></defs><g id="Layer_2" data-name="Layer 2"><g id="Layer_1-2" data-name="Layer 1"><text class="cls-1" transform="translate(4.28 802.15)">H<tspan class="cls-2" x="123.07" y="0">A</tspan><tspan class="cls-3" x="243.61" y="0">YS</tspan></text><text class="cls-4" transform="translate(464.48 802.15)">L<tspan class="cls-5" x="70.16" y="0">A</tspan><tspan x="189.85" y="0">WN</tspan></text><path class="cls-6" d="M700.71,480.86q3.24-3.89,6.82-7.69V438.9C702.16,452.94,699.07,467.44,700.71,480.86Z"/><path class="cls-6" d="M561.87,464.85V475q3.14,3.4,6,6.88C566,476.06,564,470.37,561.87,464.85Z"/><path class="cls-6" d="M258.39,474.11c2.07,2.23,4.07,4.48,6,6.75,1.54-12.7-1.13-26.36-6-39.69Z"/><path class="cls-6" d="M548.1,207.8H403.41V0h-145V391c19.24,17.57,39.85,40.69,49.81,65.85L323.31,336.6a4.56,4.56,0,0,1,4.48-4h0a4.61,4.61,0,0,1,4.53,3.88l23.7,152.93c13.91-28.87,32.2-54.25,47.35-72.74v-63H548.1Z"/><path class="cls-6" d="M561.87,0V30.08h0v386h0v.81C577,435.4,595.16,460.67,609,489.4l23.7-152.93a4.59,4.59,0,0,1,4.52-3.88h0a4.56,4.56,0,0,1,4.47,4l15.12,120.24c10.1-25.53,31.18-49,50.66-66.63V0Z"/><path class="cls-6" d="M403.41,474.74V464.26c-2.16,5.7-4.26,11.59-6.21,17.61C399.17,479.47,401.25,477.09,403.41,474.74Z"/><path class="cls-7" d="M269.48,592.3H392.84l.49-2c4.83-19.7,23.39-85.21,68.13-144.61a140.16,140.16,0,0,0-57,42.11L373,526.08l15.3-47.1a457.14,457.14,0,0,1,23.74-58.07c-15.08,18.24-33.7,43.74-47.59,72.54l-13,27.08-23.09-149L312.91,494.17,299.5,460.28c-11.48-29-38.56-55.59-59.77-73.11,17.41,25.06,37.85,62.3,33.9,94.82L271,503.46l-13.85-16.62a139.88,139.88,0,0,0-56.26-41.15c44.92,59.67,63.31,125,68.09,144.62Z"/><path class="cls-7" d="M696.65,592.3H573.29l-.49-2c-4.83-19.7-23.39-85.21-68.13-144.61a140.16,140.16,0,0,1,57,42.11l31.42,38.29L577.82,479a457.14,457.14,0,0,0-23.74-58.07c15.09,18.24,33.7,43.74,47.59,72.54l13,27.08,23.09-149,15.42,122.64,13.41-33.89c11.48-29,38.56-55.59,59.77-73.11C709,412.23,688.55,449.47,692.5,482l2.62,21.47L709,486.84a139.88,139.88,0,0,1,56.26-41.15c-44.92,59.67-63.31,125-68.09,144.62Z"/></g></g></svg>