<svg xmlns="http://www.w3.org/2000/svg" viewBox="0 0 1108.15 253.96"><defs><style>.cls-1,.cls-3{font-size:169.06px;stroke-miterlimit:10;stroke-width:8.56px;font-family:PoiretOne-Regular, Poiret One;}.cls-1,.cls-5{fill:#183e34;}.cls-1{stroke:#183e34;letter-spacing:-0.1em;}.cls-2{letter-spacing:-0.01em;}.cls-3,.cls-6{fill:#5cbd9b;}.cls-3{stroke:#5cbd9b;letter-spacing:0.05em;}.cls-4{letter-spacing:-0.1em;}</style></defs><g id="Layer_2" data-name="Layer 2"><g id="Layer_1-2" data-name="Layer 1"><text class="cls-1" transform="translate(264.3 182.52)">A<tspan class="cls-2" x="120.54" y="0">YS</tspan></text><text class="cls-3" transform="translate(606.5 182.52)">L<tspan class="cls-4" x="70.16" y="0">A</tspan><tspan x="189.85" y="0">WN</tspan></text><path class="cls-5" d="M214.3,206.18c.92-1.11,1.9-2.21,2.92-3.3V188.19C214.92,194.21,213.6,200.43,214.3,206.18Z"/><path class="cls-5" d="M154.77,199.31v4.35c.89,1,1.75,2,2.57,3C156.53,204.12,155.66,201.68,154.77,199.31Z"/><path class="cls-5" d="M24.65,203.29c.88,1,1.74,1.91,2.55,2.89.67-5.44-.48-11.3-2.55-17Z"/><path class="cls-5" d="M148.87,89.1h-62V0H24.65V167.64c8.24,7.54,17.08,17.45,21.35,28.24l6.48-51.55a2,2,0,0,1,1.92-1.73h0a2,2,0,0,1,1.94,1.67l10.16,65.57a160.53,160.53,0,0,1,20.31-31.19v-27h62Z"/><path class="cls-5" d="M154.77,0V12.9h0V178.41h0v.35A160.36,160.36,0,0,1,175,209.84l10.16-65.57a2,2,0,0,1,1.94-1.67h0a2,2,0,0,1,1.92,1.73l6.48,51.55c4.34-10.95,13.37-21,21.72-28.57V0Z"/><path class="cls-5" d="M86.83,203.56v-4.5c-.93,2.45-1.83,5-2.67,7.55C85,205.58,85.9,204.56,86.83,203.56Z"/><path class="cls-6" d="M29.4,254H82.29l.21-.86c2.08-8.45,10-36.54,29.22-62a60.15,60.15,0,0,0-24.46,18.06L73.79,225.57l6.56-20.2a198.35,198.35,0,0,1,10.18-24.9,157.81,157.81,0,0,0-20.4,31.11l-5.6,11.61-9.9-63.89L48,211.88l-5.75-14.52C37.35,184.91,25.74,173.52,16.64,166c7.47,10.74,16.23,26.71,14.54,40.65l-1.12,9.21-5.94-7.13A60,60,0,0,0,0,191.1c19.26,25.59,27.15,53.59,29.19,62Z"/><path class="cls-6" d="M212.56,254H159.67l-.21-.86c-2.08-8.45-10-36.54-29.22-62a60.15,60.15,0,0,1,24.46,18.06l13.47,16.42-6.56-20.2a198.35,198.35,0,0,0-10.18-24.9,157.81,157.81,0,0,1,20.4,31.11l5.6,11.61,9.9-63.89,6.61,52.58,5.75-14.52c4.92-12.45,16.53-23.84,25.62-31.35-7.46,10.74-16.22,26.71-14.53,40.65l1.12,9.21,5.94-7.13A60,60,0,0,1,242,191.1c-19.26,25.59-27.15,53.59-29.19,62Z"/></g></g></svg>