<?xml version="1.0" standalone="no"?>
<!DOCTYPE svg PUBLIC "-//W3C//DTD SVG 20010904//EN"
 "http://www.w3.org/TR/2001/REC-SVG-20010904/DTD/svg10.dtd">
<svg version="1.0" xmlns="http://www.w3.org/2000/svg"
 width="700.000000pt" height="700.000000pt" viewBox="0 0 700.000000 700.000000"
 preserveAspectRatio="xMidYMid meet">
<metadata>
Created by potrace 1.14, written by Peter Selinger 2001-2017
</metadata>
<g transform="translate(0.000000,700.000000) scale(0.100000,-0.100000)"
fill="#000000" stroke="none">
<path d="M0 3500 l0 -3500 3500 0 3500 0 0 3500 0 3500 -3500 0 -3500 0 0
-3500z m3050 1675 l0 -585 408 -2 407 -3 3 -412 2 -413 -410 0 -410 0 0 -177
0 -177 -43 -55 c-63 -81 -142 -201 -186 -282 -33 -60 -39 -67 -44 -47 -3 13
-33 205 -67 428 -39 254 -68 410 -76 420 -31 32 -41 -9 -78 -315 -21 -165 -40
-315 -43 -333 l-6 -34 -26 49 c-46 83 -93 145 -173 229 l-78 81 0 1107 0 1106
410 0 410 0 0 -585z m1720 -518 l0 -1103 -56 -54 c-68 -67 -166 -195 -201
-264 -15 -28 -28 -44 -30 -36 -1 8 -21 161 -43 339 -22 178 -43 328 -46 332
-7 13 -32 11 -40 -2 -4 -7 -37 -206 -74 -443 l-67 -431 -23 45 c-36 71 -98
167 -172 268 l-68 92 0 1180 0 1180 410 0 410 0 0 -1103z m-2085 -1422 c30
-198 59 -373 63 -390 8 -29 12 -23 76 105 65 127 164 288 221 355 23 28 22 24
-11 -55 -41 -99 -156 -440 -151 -453 1 -4 52 52 113 125 60 73 134 154 164
179 58 49 167 119 186 119 6 0 -17 -44 -52 -97 -114 -174 -248 -475 -295 -660
l-13 -53 -346 0 -346 0 -24 83 c-60 208 -176 463 -289 635 -33 50 -58 92 -55
92 2 0 26 -11 52 -24 82 -42 168 -112 243 -200 68 -79 74 -84 83 -63 5 12 9
74 9 137 1 95 -3 126 -22 180 -22 64 -67 159 -118 249 -23 42 -17 38 70 -50
138 -139 186 -219 278 -458 5 -13 12 -22 14 -19 4 4 82 579 86 638 1 13 2 13
5 0 2 -8 29 -177 59 -375z m1735 56 c22 -173 42 -316 45 -319 2 -3 9 6 14 19
100 258 146 333 302 484 l72 70 -37 -65 c-45 -80 -81 -156 -109 -235 -17 -49
-21 -82 -21 -181 1 -169 5 -173 88 -74 37 44 90 98 118 120 48 39 146 100 179
112 8 3 -14 -37 -49 -91 -111 -165 -241 -453 -298 -658 l-17 -63 -347 0 -346
0 -13 53 c-47 185 -181 486 -295 660 -35 53 -58 97 -52 97 19 0 128 -70 186
-119 30 -25 103 -106 164 -179 60 -73 111 -130 114 -128 6 7 -110 355 -152
456 -34 80 -34 83 -10 55 55 -65 155 -226 219 -355 53 -106 69 -131 75 -115 4
11 34 192 66 403 32 211 60 380 61 375 1 -4 20 -149 43 -322z m340 -221 c-6
-11 -16 -20 -22 -20 -13 0 -4 102 14 164 l13 41 3 -82 c2 -46 -2 -92 -8 -103z
m-2501 31 c1 -46 -1 -52 -14 -41 -11 9 -15 33 -14 94 l1 81 13 -40 c8 -22 14
-64 14 -94z m777 -39 c-14 -14 -14 -12 -3 24 10 33 13 35 15 15 2 -13 -3 -31
-12 -39z m933 -5 c1 -5 -3 -5 -9 -2 -5 3 -10 16 -9 28 0 21 1 21 9 2 5 -11 9
-24 9 -28z m-741 -1131 l52 -17 0 -69 c0 -39 -2 -70 -5 -70 -3 0 -34 12 -68
27 -48 20 -79 27 -139 27 -95 1 -131 -19 -136 -78 -5 -56 16 -72 127 -97 116
-27 149 -40 191 -76 97 -81 92 -254 -10 -335 -78 -61 -237 -73 -382 -28 l-68
21 0 74 c0 41 2 75 4 75 3 0 20 -9 38 -19 89 -52 233 -70 296 -37 37 19 57 71
43 110 -15 37 -59 60 -154 80 -145 31 -216 85 -231 176 -19 117 43 212 164
251 39 13 219 3 278 -15z m-2228 -131 l0 -146 148 3 147 3 3 143 3 142 69 0
70 0 -2 -372 -3 -373 -67 -3 -68 -3 -2 168 -3 168 -147 3 -148 3 -2 -168 -3
-168 -67 -3 -68 -3 0 376 0 375 70 0 70 0 0 -145z m1017 -210 c73 -192 136
-360 139 -373 6 -23 5 -23 -66 -20 l-73 3 -31 88 -31 87 -144 -2 -144 -3 -22
-66 c-38 -111 -36 -109 -115 -109 -39 0 -70 2 -70 5 0 4 54 149 121 323 67
174 130 341 141 370 l20 53 71 -3 70 -3 134 -350z m350 225 c47 -71 89 -130
93 -130 4 0 46 59 93 130 l87 130 79 0 79 0 -134 -200 -134 -199 0 -176 0
-175 -70 0 -70 0 0 176 0 175 -134 200 -134 199 79 0 79 0 87 -130z m1243
-180 l0 -311 102 3 103 3 116 305 116 305 73 0 72 0 139 -364 c77 -201 139
-368 139 -373 0 -5 -33 -8 -72 -6 l-73 3 -31 85 -32 85 -141 3 -141 3 -11 -28
c-7 -16 -14 -55 -18 -88 l-6 -60 -240 0 -240 0 -3 373 -2 372 75 0 75 0 0
-310z m1070 60 c34 -137 64 -250 65 -250 1 0 31 113 65 250 l62 250 73 0 73 0
57 -237 c32 -131 61 -244 65 -252 4 -7 34 96 70 238 l62 251 73 0 73 0 -85
-337 c-46 -186 -88 -355 -94 -376 l-10 -38 -77 3 -77 3 -61 245 c-33 135 -63
252 -66 260 -2 8 -34 -102 -69 -245 l-64 -260 -77 -3 -77 -3 -10 38 c-6 21
-48 190 -94 376 l-85 337 73 0 73 0 62 -250z m1157 -5 l133 -250 0 253 0 252
70 0 70 0 0 -375 0 -376 -82 3 -83 3 -130 246 -130 247 -5 -247 -5 -246 -67
-3 -68 -3 0 376 0 376 82 -3 82 -3 133 -250z"/>
<path d="M1802 1730 c-35 -92 -82 -221 -82 -225 0 -3 41 -5 90 -5 50 0 90 4
90 8 0 5 -20 62 -44 128 -39 106 -45 116 -54 94z"/>
<path d="M4076 1633 c-22 -60 -41 -114 -44 -120 -3 -10 19 -13 88 -13 69 0 91
3 88 13 -3 6 -22 60 -44 120 -21 59 -41 107 -44 107 -3 0 -23 -48 -44 -107z"/>
</g>
</svg>
